<svg xmlns="http://www.w3.org/2000/svg" viewBox="0 0 64 64"><path d="M56,7H52V6a3,3,0,0,0-6,0V7H44V6a3,3,0,0,0-6,0V7H26V6a3,3,0,0,0-6,0V7H18V6a3,3,0,0,0-6,0V7H8a5,5,0,0,0-5,5V56a5,5,0,0,0,5,5H56a5,5,0,0,0,5-5V38a1,1,0,0,0-2,0v1H47V29H59a1,1,0,0,0,2,0V12A5,5,0,0,0,56,7ZM48,6a1,1,0,0,1,2,0v4a1,1,0,0,1-2,0ZM40,6a1,1,0,0,1,2,0v4a1,1,0,0,1-2,0ZM22,6a1,1,0,0,1,2,0v4a1,1,0,0,1-2,0ZM14,6a1,1,0,0,1,2,0v4a1,1,0,0,1-2,0ZM8,9h4v1a3,3,0,0,0,6,0V9h2v1a3,3,0,0,0,6,0V9H38v1a3,3,0,0,0,6,0V9h2v1a3,3,0,0,0,6,0V9h4a3,3,0,0,1,3,3v3H5V12A3,3,0,0,1,8,9ZM45,27H33V17H45ZM33,51V41H45V51Zm-2,0H19V41H31ZM5,51V41H17V51ZM17,27H5V17H17Zm0,2V39H5V29Zm2,10V29H31V39Zm0-12V17H31V27ZM56,59H8a3,3,0,0,1-3-3V53H59v3A3,3,0,0,1,56,59Zm3-18V51H47V41ZM45,39H33V29H45Zm2-12V17H59V27Z"/><path d="M59 33v1a1 1 0 0 0 2 0V33A1 1 0 0 0 59 33zM27.29 31.29L24 34.59l-1.29-1.3a1 1 0 0 0-1.42 1.42l2 2a1 1 0 0 0 1.42 0l4-4A1 1 0 0 0 27.29 31.29zM41.29 43.29L38 46.59l-1.29-1.3a1 1 0 0 0-1.42 1.42c3.29 3.28 2 3.4 7.42-2A1 1 0 0 0 41.29 43.29zM55.29 19.29L52 22.59l-1.29-1.3a1 1 0 0 0-1.42 1.42c3.29 3.28 2 3.4 7.42-2A1 1 0 0 0 55.29 19.29z"/></svg>