<svg xmlns="http://www.w3.org/2000/svg" width="64" height="64" enable-background="new 0 0 64 64" viewBox="0 0 64 64"><path d="M30.186,14.285h-6.621v-2.75c0-0.553-0.447-1-1-1h-3.75c-0.553,0-1,0.447-1,1v2.75h-1.75v-2.75c0-0.553-0.447-1-1-1h-3.75
		c-0.553,0-1,0.447-1,1v2.75H3.936c-0.553,0-1,0.447-1,1v37.18c0,0.553,0.447,1,1,1h26.25c0.553,0,1-0.447,1-1v-37.18
		C31.186,14.732,30.738,14.285,30.186,14.285z M19.814,12.535h1.75v2.75v2.75h-1.75v-2.75V12.535z M12.314,12.535h1.75v2.75v2.75
		h-1.75v-2.75V12.535z M29.186,51.465H4.936v-35.18h5.379v2.75c0,0.553,0.447,1,1,1h3.75c0.553,0,1-0.447,1-1v-2.75h1.75v2.75
		c0,0.553,0.447,1,1,1h3.75c0.553,0,1-0.447,1-1v-2.75h5.621V51.465z"/><path d="M22.564 21.785h-11.25c-.012 0-.021.006-.032.007-.063.002-.124.023-.188.037-.067.016-.136.024-.198.054-.01.004-.02.003-.029.008-.045.022-.073.061-.113.088-.06.042-.12.079-.169.133-.044.047-.072.103-.106.157-.033.055-.07.104-.094.165-.025.068-.031.14-.042.212-.007.048-.028.09-.028.14v22.5c0 .553.447 1 1 1h11.25l0 0c.001 0 .001 0 .001 0 .002 0 .004-.001.006-.001.148-.001.286-.039.413-.098.009-.005.019-.003.027-.007.045-.022.073-.061.113-.088.06-.042.12-.079.169-.133.044-.047.072-.103.106-.157.033-.055.07-.104.094-.166.025-.067.031-.139.042-.211.007-.048.028-.09.028-.14v-22.5C23.564 22.232 23.117 21.785 22.564 21.785zM21.564 41.049l-8.632-17.264h8.632V41.049zM12.314 27.021l8.632 17.264h-8.632V27.021zM60.064 14.285h-6.619v-2.75c0-.553-.447-1-1-1h-3.75c-.553 0-1 .447-1 1v2.75h-1.75v-2.75c0-.553-.447-1-1-1h-3.75c-.553 0-1 .447-1 1v2.75h-6.381c-.553 0-1 .447-1 1v37.18c0 .553.447 1 1 1h26.25c.553 0 1-.447 1-1v-37.18C61.064 14.732 60.617 14.285 60.064 14.285zM49.695 12.535h1.75v2.75 2.75h-1.75v-2.75V12.535zM42.195 12.535h1.75v2.75 2.75h-1.75v-2.75V12.535zM59.064 51.465h-24.25v-35.18h5.381v2.75c0 .553.447 1 1 1h3.75c.553 0 1-.447 1-1v-2.75h1.75v2.75c0 .553.447 1 1 1h3.75c.553 0 1-.447 1-1v-2.75h5.619V51.465z"/><path d="M52.445,21.785h-11.25c-0.012,0-0.021,0.006-0.032,0.007c-0.063,0.002-0.124,0.023-0.187,0.037
		c-0.068,0.016-0.137,0.024-0.199,0.054c-0.01,0.004-0.02,0.003-0.029,0.008c-0.045,0.022-0.073,0.061-0.113,0.088
		c-0.06,0.042-0.12,0.079-0.169,0.133c-0.044,0.047-0.072,0.103-0.106,0.157c-0.033,0.055-0.07,0.104-0.094,0.165
		c-0.025,0.068-0.031,0.14-0.042,0.212c-0.007,0.048-0.028,0.09-0.028,0.14v22.5c0,0.553,0.447,1,1,1h11.25l0,0
		c0.001,0,0.001,0,0.001,0c0.002,0,0.004-0.001,0.006-0.001c0.148-0.001,0.286-0.039,0.413-0.098
		c0.009-0.005,0.019-0.003,0.027-0.007c0.045-0.022,0.073-0.061,0.113-0.088c0.06-0.042,0.12-0.079,0.169-0.133
		c0.044-0.047,0.072-0.103,0.106-0.157c0.033-0.055,0.07-0.104,0.094-0.166c0.025-0.067,0.031-0.139,0.042-0.211
		c0.007-0.048,0.028-0.09,0.028-0.14v-22.5C53.445,22.232,52.998,21.785,52.445,21.785z M51.445,41.049l-8.632-17.264h8.632V41.049z
		 M42.195,27.021l8.632,17.264h-8.632V27.021z"/></svg>