<?xml version="1.0" encoding="UTF-8" standalone="no"?>
<svg xmlns:dc="http://purl.org/dc/elements/1.1/" xmlns:cc="http://creativecommons.org/ns#" xmlns:rdf="http://www.w3.org/1999/02/22-rdf-syntax-ns#" xmlns:svg="http://www.w3.org/2000/svg" xmlns="http://www.w3.org/2000/svg" xmlns:sodipodi="http://sodipodi.sourceforge.net/DTD/sodipodi-0.dtd" xmlns:inkscape="http://www.inkscape.org/namespaces/inkscape" version="1.1" id="Layer_1" x="0px" y="0px" viewBox="0 0 16 16" style="enable-background:new 0 0 16 16;" xml:space="preserve" inkscape:version="0.91 r13725" sodipodi:docname="!6x16 Medium Line-15.svg"><defs id="defs13"/><sodipodi:namedview pagecolor="#ffffff" bordercolor="#666666" borderopacity="1" objecttolerance="10" gridtolerance="10" guidetolerance="10" inkscape:pageopacity="0" inkscape:pageshadow="2" inkscape:window-width="1366" inkscape:window-height="705" id="namedview11" showgrid="true" inkscape:zoom="14.75" inkscape:cx="-2.4852134" inkscape:cy="7.6507516" inkscape:window-x="-8" inkscape:window-y="-8" inkscape:window-maximized="1" inkscape:current-layer="Layer_1"><inkscape:grid type="xygrid" id="grid4143"/></sodipodi:namedview><style type="text/css" id="style3">
	.st0{fill:none;stroke:#231F20;stroke-miterlimit:10;}
	.st1{fill:none;stroke:#231F20;stroke-linecap:round;stroke-linejoin:round;stroke-miterlimit:10;}
	.st2{fill:#231F20;}
</style><path style="fill:#231f20;stroke:none" d="M 12.007812 0.50390625 C 10.947812 0.50390625 10.008234 0.987375 9.3652344 1.734375 C 8.7602344 1.568375 8.1378594 1.4707031 7.5058594 1.4707031 C 3.6388594 1.4707031 0.4921875 4.617375 0.4921875 8.484375 C 0.4921875 10.357375 1.220875 12.119359 2.546875 13.443359 C 3.871875 14.767359 5.6328594 15.496094 7.5058594 15.496094 C 11.372859 15.496094 14.519531 12.351375 14.519531 8.484375 C 14.519531 7.863375 14.417812 7.2551094 14.257812 6.6621094 C 15.015813 6.0191094 15.507812 5.0729063 15.507812 4.0039062 C 15.507812 2.0739063 13.937812 0.50390625 12.007812 0.50390625 z M 12.007812 1.5039062 C 13.386812 1.5039062 14.507813 2.6259062 14.507812 4.0039062 C 14.507812 5.3819063 13.386812 6.5039062 12.007812 6.5039062 C 10.628813 6.5039062 9.5078125 5.3819063 9.5078125 4.0039062 C 9.5078125 2.6259062 10.628812 1.5039062 12.007812 1.5039062 z M 7.5058594 2.4707031 C 7.9418594 2.4707031 8.3709688 2.5349531 8.7929688 2.6269531 C 8.6109687 3.0499531 8.5078125 3.5149063 8.5078125 4.0039062 C 8.5078125 4.7559062 8.75125 5.4465781 9.15625 6.0175781 C 8.67125 5.6855781 8.0842656 5.4902344 7.4472656 5.4902344 C 5.8002656 5.4902344 4.4589844 6.8299531 4.4589844 8.5019531 C 4.4589844 9.4319531 4.8945 10.252781 5.5625 10.800781 C 4.5935 11.132781 3.7191094 11.713047 3.0371094 12.498047 C 2.0431094 11.392047 1.4921875 9.982375 1.4921875 8.484375 C 1.4921875 5.169375 4.1888594 2.4707031 7.5058594 2.4707031 z M 11.486328 2.5039062 L 11.486328 3.5 L 10.511719 3.5 L 10.511719 4.5 L 11.486328 4.5 L 11.486328 5.4960938 L 12.486328 5.4960938 L 12.486328 4.5 L 13.503906 4.5 L 13.503906 3.5 L 12.486328 3.5 L 12.486328 2.5039062 L 11.486328 2.5039062 z M 7.4707031 6.4902344 C 8.5677031 6.4902344 9.4589844 7.3819531 9.4589844 8.5019531 C 9.4589844 9.5759531 8.6011562 10.447422 7.5351562 10.482422 C 7.5061563 10.482422 7.4782187 10.478516 7.4492188 10.478516 C 7.4242187 10.478516 7.4019531 10.481422 7.3769531 10.482422 C 6.3139531 10.443422 5.4589844 9.5735156 5.4589844 8.4785156 C 5.4589844 7.3825156 6.3507031 6.4902344 7.4707031 6.4902344 z M 9.9550781 6.8242188 C 10.533078 7.2462187 11.238812 7.5039062 12.007812 7.5039062 C 12.490813 7.5039062 12.950141 7.4035625 13.369141 7.2265625 C 13.457141 7.6385625 13.519531 8.057375 13.519531 8.484375 C 13.519531 10.057375 12.907016 11.486594 11.916016 12.558594 C 11.229016 11.744594 10.340609 11.144688 9.3496094 10.804688 C 10.020609 10.253687 10.458984 9.4245156 10.458984 8.4785156 C 10.458984 7.8665156 10.273078 7.2982188 9.9550781 6.8242188 z M 7.3769531 11.482422 C 7.4009531 11.482422 7.4232656 11.490234 7.4472656 11.490234 L 7.4707031 11.490234 C 7.4927031 11.490234 7.5112031 11.483422 7.5332031 11.482422 C 8.9512031 11.507422 10.276781 12.151375 11.175781 13.234375 C 10.158781 14.022375 8.8888594 14.496094 7.5058594 14.496094 C 6.1288594 14.496094 4.8236719 14.0335 3.7636719 13.1875 C 4.6646719 12.1315 5.9799531 11.504422 7.3769531 11.482422 z " id="path7"/>
	<metadata>
		<rdf:RDF xmlns:rdf="http://www.w3.org/1999/02/22-rdf-syntax-ns#" xmlns:rdfs="http://www.w3.org/2000/01/rdf-schema#" xmlns:dc="http://purl.org/dc/elements/1.1/">
			<rdf:Description about="https://admin.iconscout.com/legal#licenses" dc:title="15 user profie avatar male add insert plus" dc:description="15 user profie avatar male add insert plus" dc:publisher="Iconscout" dc:date="2017-04-23" dc:format="image/svg+xml" dc:language="en">
				<dc:creator>
					<rdf:Bag>
						<rdf:li>Dalpat Prajapati</rdf:li>
					</rdf:Bag>
				</dc:creator>
			</rdf:Description>
		</rdf:RDF>
    </metadata></svg>
