<svg xmlns="http://www.w3.org/2000/svg" viewBox="0 0 32 32"><path d="M16 17A8 8 0 1 0 8 9 8 8 0 0 0 16 17zM16 3a6 6 0 1 1-6 6A6 6 0 0 1 16 3zM27 25.81v-.06a.61.61 0 0 0 0-.14A7 7 0 0 0 20 19H19a1 1 0 0 0-.55.17L16 20.8l-2.45-1.63A1 1 0 0 0 13 19H12a7 7 0 0 0-7 6.71H5s0 .09 0 .13A.86.86 0 0 0 5 26a.57.57 0 0 0 0 .13V28a3 3 0 0 0 3 3H24a3 3 0 0 0 3-3V26.13A.57.57 0 0 0 27 26S27 25.82 27 25.81zM25 26v2a1 1 0 0 1-1 1H8a1 1 0 0 1-1-1V26a.22.22 0 0 0 0-.08v-.06H7v-.06A5 5 0 0 1 12 21h.7l2.75 1.83a1 1 0 0 0 1.1 0L19.3 21H20a5 5 0 0 1 5 4.79v.13A.19.19 0 0 0 25 26z"/></svg>